<svg id="Capa_1" data-name="Capa 1" xmlns="http://www.w3.org/2000/svg" viewBox="0 0 640.96 1200"><defs><style>.cls-1{fill:#f66;}</style></defs><path class="cls-1" d="M629,218.37v30.92a33,33,0,0,1-33,33H44.93a33,33,0,0,1-33-33V218.37a33,33,0,0,1,33-33H596A33,33,0,0,1,629,218.37Z"/><rect class="cls-1" x="87.48" y="87.7" width="465.99" height="73.17" rx="34.1"/><rect class="cls-1" x="172.5" y="10.9" width="295.94" height="52.28" rx="21.4"/><rect class="cls-1" x="270.53" y="306.79" width="99.87" height="586.43" rx="7.76"/><path class="cls-1" d="M12,981.63V950.71a33,33,0,0,1,33-33H596a33,33,0,0,1,33,33h0v30.92a33,33,0,0,1-33,33H45A33,33,0,0,1,12,981.63Z"/><rect class="cls-1" x="87.49" y="1039.13" width="465.99" height="73.17" rx="34.1"/><rect class="cls-1" x="172.52" y="1136.82" width="295.94" height="52.28" rx="21.4"/></svg>